# WaveFront *.obj file (generated by CINEMA 4D)

mtllib ./圆锥3.mtl

v 0 -80 0
v 0 80 0
v 17.66666603088379 -80 0
v 35.33333206176758 -80 0
v 53 -80 0
v 47 -60 0
v 41 -40 0
v 35 -20 0
v 29 0 0
v 23 20 0
v 17 40 0
v 11 60 0
v 5 80 0
v 3.33333325386047 80 0
v 1.66666662693024 80 0
v 13.53345203399658 -80 11.35591411590576
v 27.06690406799316 -80 22.71182823181152
v 40.60035705566406 -80 34.06774520874023
v 36.00408935546875 -60 30.21101760864258
v 31.40782165527344 -40 26.35429191589355
v 26.81155586242676 -20 22.49756622314453
v 22.21528816223145 0 18.64084053039551
v 17.61902236938477 20 14.78411483764648
v 13.02275562286377 40 10.92738914489746
v 8.42648887634277 60 7.0706639289856
v 3.83022212982178 80 3.21393799781799
v 2.5534815788269 80 2.14262533187866
v 1.27674078941345 80 1.07131266593933
v 3.06778454780579 -80 17.39826965332031
v 6.13556909561157 -80 34.79653930664062
v 9.20335388183594 -80 52.1948127746582
v 8.16146469116211 -60 46.28596496582031
v 7.11957550048828 -40 40.37711715698242
v 6.07768630981445 -20 34.4682731628418
v 5.03579711914062 0 28.55942535400391
v 3.99390816688538 20 22.65057754516602
v 2.95201897621155 40 16.74173164367676
v 1.91012990474701 60 10.8328857421875
v 0.86824089288712 80 4.92403888702393
v 0.57882726192474 80 3.28269243240356
v 0.28941363096237 80 1.64134621620178
v -8.83333301544189 -80 15.29978179931641
v -17.66666603088379 -80 30.59956359863281
v -26.5 -80 45.89934539794922
v -23.5 -60 40.70319366455078
v -20.5 -40 35.50704193115234
v -17.5 -20 30.31088829040527
v -14.5 0 25.11473655700684
v -11.5 20 19.9185848236084
v -8.5 40 14.72243213653564
v -5.5 60 9.52627944946289
v -2.5 80 4.33012723922729
v -1.66666662693024 80 2.88675141334534
v -0.83333331346512 80 1.44337570667267
v -16.60123634338379 -80 6.04235601425171
v -33.20247268676758 -80 12.08471202850342
v -49.80370712280273 -80 18.12706756591797
v -44.16555404663086 -60 16.07494735717773
v -38.52739715576172 -40 14.02282619476318
v -32.88924026489258 -20 11.97070503234863
v -27.25108528137207 0 9.91858386993408
v -21.61293029785156 20 7.86646318435669
v -15.97477436065674 40 5.8143424987793
v -10.33661842346191 60 3.76222157478333
v -4.69846296310425 80 1.71010076999664
v -3.13230872154236 80 1.1400671005249
v -1.56615436077118 80 0.57003355026245
v -16.60123634338379 -80 -6.04235601425171
v -33.20247268676758 -80 -12.08471202850342
v -49.80370712280273 -80 -18.12706756591797
v -44.16555404663086 -60 -16.07494735717773
v -38.52739715576172 -40 -14.02282619476318
v -32.88924026489258 -20 -11.97070503234863
v -27.25108528137207 0 -9.91858386993408
v -21.61293029785156 20 -7.86646318435669
v -15.97477436065674 40 -5.8143424987793
v -10.33661842346191 60 -3.76222157478333
v -4.69846296310425 80 -1.71010076999664
v -3.13230872154236 80 -1.1400671005249
v -1.56615436077118 80 -0.57003355026245
v -8.83333301544189 -80 -15.29978179931641
v -17.66666603088379 -80 -30.59956359863281
v -26.5 -80 -45.89934539794922
v -23.5 -60 -40.70319366455078
v -20.5 -40 -35.50704193115234
v -17.5 -20 -30.31088829040527
v -14.5 0 -25.11473655700684
v -11.5 20 -19.9185848236084
v -8.5 40 -14.72243213653564
v -5.5 60 -9.52627944946289
v -2.5 80 -4.33012723922729
v -1.66666662693024 80 -2.88675141334534
v -0.83333331346512 80 -1.44337570667267
v 3.06778454780579 -80 -17.39826965332031
v 6.13556909561157 -80 -34.79653930664062
v 9.20335388183594 -80 -52.1948127746582
v 8.16146469116211 -60 -46.28596496582031
v 7.11957550048828 -40 -40.37711715698242
v 6.07768630981445 -20 -34.4682731628418
v 5.03579711914062 0 -28.55942535400391
v 3.99390816688538 20 -22.65057754516602
v 2.95201897621155 40 -16.74173164367676
v 1.91012990474701 60 -10.8328857421875
v 0.86824089288712 80 -4.92403888702393
v 0.57882726192474 80 -3.28269243240356
v 0.28941363096237 80 -1.64134621620178
v 13.53345203399658 -80 -11.35591411590576
v 27.06690406799316 -80 -22.71182823181152
v 40.60035705566406 -80 -34.06774520874023
v 36.00408935546875 -60 -30.21101760864258
v 31.40782165527344 -40 -26.35429191589355
v 26.81155586242676 -20 -22.49756622314453
v 22.21528816223145 0 -18.64084053039551
v 17.61902236938477 20 -14.78411483764648
v 13.02275562286377 40 -10.92738914489746
v 8.42648887634277 60 -7.0706639289856
v 3.83022212982178 80 -3.21393799781799
v 2.5534815788269 80 -2.14262533187866
v 1.27674078941345 80 -1.07131266593933
# 119 vertices

vn 0 -1 0
vn 0 0 0
vn 0.95782625675201 0.28734791278839 0
vn 0.73373752832413 0.28734791278839 0.61567884683609
vn 0.95782625675201 0.28734788298607 0
vn 0.73373752832413 0.28734785318375 0.61567884683609
vn 0.73373752832413 0.28734785318375 0.61567884683609
vn 0.73373752832413 0.28734788298607 0.61567884683609
vn 0.95782631635666 0.28734785318375 -0.00000000789036
vn 0.73373752832413 0.28734788298607 0.61567884683609
vn 0.95782625675201 0.28734788298607 -0.00000002367108
vn 0.95782625675201 0.28734788298607 -0.00000003156143
vn 0 1 0
vn 0.16632477939129 0.28734791278839 0.94327473640442
vn 0.16632476449013 0.28734791278839 0.94327473640442
vn 0.16632477939129 0.28734788298607 0.94327473640442
vn 0.16632480919361 0.28734788298607 0.94327473640442
vn 0.16632477939129 0.28734785318375 0.94327473640442
vn -0.47891315817833 0.28734788298607 0.82950186729431
vn -0.47891318798065 0.28734785318375 0.82950186729431
vn -0.47891315817833 0.28734791278839 0.82950186729431
vn -0.47891321778297 0.28734791278839 0.82950186729431
vn -0.47891312837601 0.28734788298607 0.82950192689896
vn -0.47891309857368 0.28734785318375 0.82950192689896
vn -0.47891315817833 0.28734785318375 0.82950186729431
vn -0.90006232261658 0.28734785318375 0.32759591937065
vn -0.90006232261658 0.2873477935791 0.32759591937065
vn -0.90006226301193 0.28734791278839 0.32759588956833
vn -0.90006232261658 0.28734785318375 0.32759588956833
vn -0.90006232261658 0.28734788298607 0.32759588956833
vn -0.90006232261658 0.28734782338142 0.32759585976601
vn -0.90006232261658 0.28734785318375 0.32759588956833
vn -0.90006232261658 0.28734785318375 -0.32759591937065
vn -0.90006232261658 0.2873477935791 -0.32759591937065
vn -0.90006226301193 0.28734791278839 -0.32759588956833
vn -0.90006232261658 0.28734785318375 -0.32759588956833
vn -0.90006232261658 0.28734788298607 -0.32759588956833
vn -0.47891312837601 0.28734788298607 -0.82950192689896
vn -0.47891318798065 0.28734785318375 -0.82950186729431
vn -0.47891312837601 0.28734791278839 -0.82950192689896
vn -0.47891318798065 0.28734791278839 -0.82950186729431
vn -0.47891312837601 0.28734788298607 -0.82950192689896
vn -0.47891312837601 0.28734785318375 -0.82950192689896
vn 0.16632476449013 0.28734788298607 -0.94327473640442
vn 0.16632476449013 0.28734791278839 -0.94327473640442
vn 0.16632476449013 0.28734785318375 -0.94327473640442
vn 0.16632474958897 0.28734785318375 -0.94327473640442
vn 0.16632479429245 0.28734782338142 -0.94327473640442
vn 0.16632479429245 0.28734785318375 -0.94327473640442
vn 0.16632483899593 0.28734791278839 -0.94327473640442
vn 0.73373752832413 0.28734791278839 -0.61567884683609
vn 0.73373752832413 0.28734788298607 -0.61567884683609
vn 0.73373752832413 0.28734785318375 -0.61567884683609
vn 0.73373752832413 0.28734788298607 -0.61567884683609
# 54 normals

vt 0.5 0.5 0
vt 0.33333331346512 0.5 0
vt 0.3723258972168 0.60713130235672 0
vt 0 1 0
vt 0.16666665673256 0.5 0
vt 0.24465185403824 0.7142625451088 0
vt 0 0.5 0
vt 0.11697778105736 0.82139384746552 0
vt 0 0 0
vt 0 0.125 0
vt 0.11111110448837 0.125 0
vt 0.11111110448837 0 0
vt 0 0.25 0
vt 0.11111110448837 0.25 0
vt 0 0.375 0
vt 0.11111110448837 0.375 0
vt 0.11111110448837 0.5 0
vt 0 0.625 0
vt 0.11111110448837 0.625 0
vt 0 0.75 0
vt 0.11111110448837 0.75 0
vt 0 0.875 0
vt 0.11111110448837 0.875 0
vt 0.11111110448837 1 0
vt 1 0.5 0
vt 0.83333325386047 0.5 0
vt 0.75534808635712 0.7142625451088 0
vt 0.88302218914032 0.82139384746552 0
vt 0.66666662693024 0.5 0
vt 0.6276741027832 0.60713130235672 0
vt 0.47105860710144 0.66413462162018 0
vt 0.44211727380753 0.82826924324036 0
vt 0.41317588090897 0.99240386486053 0
vt 0.22222220897675 0.125 0
vt 0.22222220897675 0 0
vt 0.22222220897675 0.25 0
vt 0.22222220897675 0.375 0
vt 0.22222220897675 0.5 0
vt 0.22222220897675 0.625 0
vt 0.22222220897675 0.75 0
vt 0.22222220897675 0.875 0
vt 0.22222220897675 1 0
vt 0.55788266658783 0.82826924324036 0
vt 0.58682405948639 0.99240386486053 0
vt 0.52894127368927 0.66413462162018 0
vt 0.58333325386047 0.64433759450912 0
vt 0.66666662693024 0.7886751294136 0
vt 0.75 0.93301272392273 0
vt 0.33333331346512 0.125 0
vt 0.33333331346512 0 0
vt 0.33333331346512 0.25 0
vt 0.33333331346512 0.375 0
vt 0.33333331346512 0.625 0
vt 0.33333331346512 0.75 0
vt 0.33333331346512 0.875 0
vt 0.33333331346512 1 0
vt 0.33333331346512 0.7886751294136 0
vt 0.25 0.93301272392273 0
vt 0.41666662693024 0.64433759450912 0
vt 0.65661537647247 0.5570033788681 0
vt 0.81323087215424 0.61400675773621 0
vt 0.96984624862671 0.67101007699966 0
vt 0.44444441795349 0.125 0
vt 0.44444441795349 0 0
vt 0.44444441795349 0.25 0
vt 0.44444441795349 0.375 0
vt 0.44444441795349 0.5 0
vt 0.44444441795349 0.625 0
vt 0.44444441795349 0.75 0
vt 0.44444441795349 0.875 0
vt 0.44444441795349 1 0
vt 0.18676912784576 0.61400675773621 0
vt 0.03015368804336 0.67101007699966 0
vt 0.34338456392288 0.5570033788681 0
vt 0.65661537647247 0.4429966211319 0
vt 0.81323087215424 0.38599336147308 0
vt 0.96984624862671 0.32898998260498 0
vt 0.55555558204651 0.125 0
vt 0.55555558204651 0 0
vt 0.55555558204651 0.25 0
vt 0.55555558204651 0.375 0
vt 0.55555558204651 0.5 0
vt 0.55555558204651 0.625 0
vt 0.55555558204651 0.75 0
vt 0.55555558204651 0.875 0
vt 0.55555558204651 1 0
vt 0.18676912784576 0.38599336147308 0
vt 0.03015368804336 0.32898998260498 0
vt 0.34338456392288 0.4429966211319 0
vt 0.58333325386047 0.35566246509552 0
vt 0.66666662693024 0.21132493019104 0
vt 0.75 0.06698727607727 0
vt 0.66666662693024 0.125 0
vt 0.66666662693024 0 0
vt 0.66666662693024 0.25 0
vt 0.66666662693024 0.375 0
vt 0.66666662693024 0.625 0
vt 0.66666662693024 0.75 0
vt 0.66666662693024 0.875 0
vt 0.66666662693024 1 0
vt 0.33333331346512 0.21132493019104 0
vt 0.25 0.06698727607727 0
vt 0.41666662693024 0.35566246509552 0
vt 0.47105860710144 0.33586537837982 0
vt 0.44211727380753 0.17173075675964 0
vt 0.41317588090897 0.00759613513947 0
vt 0.77777779102325 0.125 0
vt 0.77777779102325 0 0
vt 0.77777779102325 0.25 0
vt 0.77777779102325 0.375 0
vt 0.77777779102325 0.5 0
vt 0.77777779102325 0.625 0
vt 0.77777779102325 0.75 0
vt 0.77777779102325 0.875 0
vt 0.77777779102325 1 0
vt 0.55788266658783 0.17173075675964 0
vt 0.58682405948639 0.00759613513947 0
vt 0.52894127368927 0.33586537837982 0
vt 0.3723258972168 0.39286875724792 0
vt 0.24465185403824 0.28573751449585 0
vt 0.11697778105736 0.17860627174377 0
vt 0.88888883590698 0.125 0
vt 0.88888883590698 0 0
vt 0.88888883590698 0.25 0
vt 0.88888883590698 0.375 0
vt 0.88888883590698 0.5 0
vt 0.88888883590698 0.625 0
vt 0.88888883590698 0.75 0
vt 0.88888883590698 0.875 0
vt 0.88888883590698 1 0
vt 0.75534808635712 0.28573751449585 0
vt 0.88302218914032 0.17860627174377 0
vt 0.6276741027832 0.39286875724792 0
vt 1 0.125 0
vt 1 0 0
vt 1 0.25 0
vt 1 0.375 0
vt 1 0.625 0
vt 1 0.75 0
vt 1 0.875 0
vt 1 1 0
# 141 texture coordinates

o Cone
usemtl default
f 1/1/1 3/2/1 16/3/1
f 3/2/1 4/5/1 17/6/1 16/3/1
f 4/5/1 5/7/1 18/8/1 17/6/1
f 5/9/3 6/10/3 19/11/4 18/12/4
f 6/10/3 7/13/5 20/14/6 19/11/4
f 7/13/5 8/15/5 21/16/7 20/14/6
f 8/15/5 9/7/5 22/17/4 21/16/7
f 9/7/5 10/18/5 23/19/8 22/17/4
f 10/18/5 11/20/9 24/21/10 23/19/8
f 11/20/9 12/22/11 25/23/10 24/21/10
f 12/22/11 13/4/12 26/24/4 25/23/10
f 13/25/13 14/26/13 27/27/13 26/28/13
f 14/26/13 15/29/13 28/30/13 27/27/13
f 15/29/13 2/1/13 28/30/13
f 1/1/1 16/3/1 29/31/1
f 16/3/1 17/6/1 30/32/1 29/31/1
f 17/6/1 18/8/1 31/33/1 30/32/1
f 18/12/4 19/11/4 32/34/14 31/35/15
f 19/11/4 20/14/6 33/36/16 32/34/14
f 20/14/6 21/16/7 34/37/16 33/36/16
f 21/16/7 22/17/4 35/38/14 34/37/16
f 22/17/4 23/19/8 36/39/17 35/38/14
f 23/19/8 24/21/10 37/40/18 36/39/17
f 24/21/10 25/23/10 38/41/18 37/40/18
f 25/23/10 26/24/4 39/42/16 38/41/18
f 26/28/13 27/27/13 40/43/13 39/44/13
f 27/27/13 28/30/13 41/45/13 40/43/13
f 28/30/13 2/1/13 41/45/13
f 1/1/1 29/31/1 42/46/1
f 29/31/1 30/32/1 43/47/1 42/46/1
f 30/32/1 31/33/1 44/48/1 43/47/1
f 31/35/15 32/34/14 45/49/19 44/50/20
f 32/34/14 33/36/16 46/51/21 45/49/19
f 33/36/16 34/37/16 47/52/22 46/51/21
f 34/37/16 35/38/14 48/2/23 47/52/22
f 35/38/14 36/39/17 49/53/24 48/2/23
f 36/39/17 37/40/18 50/54/25 49/53/24
f 37/40/18 38/41/18 51/55/20 50/54/25
f 38/41/18 39/42/16 52/56/20 51/55/20
f 39/44/13 40/43/13 53/57/13 52/58/13
f 40/43/13 41/45/13 54/59/13 53/57/13
f 41/45/13 2/1/13 54/59/13
f 1/1/1 42/46/1 55/60/1
f 42/46/1 43/47/1 56/61/1 55/60/1
f 43/47/1 44/48/1 57/62/1 56/61/1
f 44/50/20 45/49/19 58/63/26 57/64/27
f 45/49/19 46/51/21 59/65/28 58/63/26
f 46/51/21 47/52/22 60/66/28 59/65/28
f 47/52/22 48/2/23 61/67/29 60/66/28
f 48/2/23 49/53/24 62/68/30 61/67/29
f 49/53/24 50/54/25 63/69/28 62/68/30
f 50/54/25 51/55/20 64/70/31 63/69/28
f 51/55/20 52/56/20 65/71/32 64/70/31
f 52/58/13 53/57/13 66/72/13 65/73/13
f 53/57/13 54/59/13 67/74/13 66/72/13
f 54/59/13 2/1/13 67/74/13
f 1/1/1 55/60/1 68/75/1
f 55/60/1 56/61/1 69/76/1 68/75/1
f 56/61/1 57/62/1 70/77/1 69/76/1
f 57/64/27 58/63/26 71/78/33 70/79/34
f 58/63/26 59/65/28 72/80/35 71/78/33
f 59/65/28 60/66/28 73/81/35 72/80/35
f 60/66/28 61/67/29 74/82/36 73/81/35
f 61/67/29 62/68/30 75/83/36 74/82/36
f 62/68/30 63/69/28 76/84/37 75/83/36
f 63/69/28 64/70/31 77/85/36 76/84/37
f 64/70/31 65/71/32 78/86/36 77/85/36
f 65/73/13 66/72/13 79/87/13 78/88/13
f 66/72/13 67/74/13 80/89/13 79/87/13
f 67/74/13 2/1/13 80/89/13
f 1/1/1 68/75/1 81/90/1
f 68/75/1 69/76/1 82/91/1 81/90/1
f 69/76/1 70/77/1 83/92/1 82/91/1
f 70/79/34 71/78/33 84/93/38 83/94/39
f 71/78/33 72/80/35 85/95/40 84/93/38
f 72/80/35 73/81/35 86/96/41 85/95/40
f 73/81/35 74/82/36 87/29/42 86/96/41
f 74/82/36 75/83/36 88/97/43 87/29/42
f 75/83/36 76/84/37 89/98/42 88/97/43
f 76/84/37 77/85/36 90/99/42 89/98/42
f 77/85/36 78/86/36 91/100/40 90/99/42
f 78/88/13 79/87/13 92/101/13 91/102/13
f 79/87/13 80/89/13 93/103/13 92/101/13
f 80/89/13 2/1/13 93/103/13
f 1/1/1 81/90/1 94/104/1
f 81/90/1 82/91/1 95/105/1 94/104/1
f 82/91/1 83/92/1 96/106/1 95/105/1
f 83/94/39 84/93/38 97/107/44 96/108/45
f 84/93/38 85/95/40 98/109/46 97/107/44
f 85/95/40 86/96/41 99/110/47 98/109/46
f 86/96/41 87/29/42 100/111/44 99/110/47
f 87/29/42 88/97/43 101/112/48 100/111/44
f 88/97/43 89/98/42 102/113/48 101/112/48
f 89/98/42 90/99/42 103/114/49 102/113/48
f 90/99/42 91/100/40 104/115/50 103/114/49
f 91/102/13 92/101/13 105/116/13 104/117/13
f 92/101/13 93/103/13 106/118/13 105/116/13
f 93/103/13 2/1/13 106/118/13
f 1/1/1 94/104/1 107/119/1
f 94/104/1 95/105/1 108/120/1 107/119/1
f 95/105/1 96/106/1 109/121/1 108/120/1
f 96/108/45 97/107/44 110/122/51 109/123/51
f 97/107/44 98/109/46 111/124/52 110/122/51
f 98/109/46 99/110/47 112/125/52 111/124/52
f 99/110/47 100/111/44 113/126/51 112/125/52
f 100/111/44 101/112/48 114/127/53 113/126/51
f 101/112/48 102/113/48 115/128/53 114/127/53
f 102/113/48 103/114/49 116/129/53 115/128/53
f 103/114/49 104/115/50 117/130/54 116/129/53
f 104/117/13 105/116/13 118/131/13 117/132/13
f 105/116/13 106/118/13 119/133/13 118/131/13
f 106/118/13 2/1/13 119/133/13
f 1/1/1 107/119/1 3/2/1
f 107/119/1 108/120/1 4/5/1 3/2/1
f 108/120/1 109/121/1 5/7/1 4/5/1
f 109/123/51 110/122/51 6/134/3 5/135/3
f 110/122/51 111/124/52 7/136/5 6/134/3
f 111/124/52 112/125/52 8/137/5 7/136/5
f 112/125/52 113/126/51 9/25/5 8/137/5
f 113/126/51 114/127/53 10/138/5 9/25/5
f 114/127/53 115/128/53 11/139/9 10/138/5
f 115/128/53 116/129/53 12/140/11 11/139/9
f 116/129/53 117/130/54 13/141/12 12/140/11
f 117/132/13 118/131/13 14/26/13 13/25/13
f 118/131/13 119/133/13 15/29/13 14/26/13
f 119/133/13 2/1/13 15/29/13

